<?xml version="1.0" encoding="UTF-8" standalone="no"?>
<!-- Created with Inkscape (http://www.inkscape.org/) -->

<svg
   xmlns:dc="http://purl.org/dc/elements/1.1/"
   xmlns:cc="http://creativecommons.org/ns#"
   xmlns:rdf="http://www.w3.org/1999/02/22-rdf-syntax-ns#"
   xmlns:svg="http://www.w3.org/2000/svg"
   xmlns="http://www.w3.org/2000/svg"
   xmlns:sodipodi="http://sodipodi.sourceforge.net/DTD/sodipodi-0.dtd"
   xmlns:inkscape="http://www.inkscape.org/namespaces/inkscape"
   width="634.91998"
   height="634.91998"
   id="svg4132"
   version="1.1"
   inkscape:version="0.47 r22583"
   sodipodi:docname="PirateShip_s.svg">
  <defs
     id="defs4134">
    <inkscape:perspective
       sodipodi:type="inkscape:persp3d"
       inkscape:vp_x="0 : 526.18109 : 1"
       inkscape:vp_y="0 : 1000 : 0"
       inkscape:vp_z="744.09448 : 526.18109 : 1"
       inkscape:persp3d-origin="372.04724 : 350.78739 : 1"
       id="perspective4140" />
    <inkscape:perspective
       id="perspective4150"
       inkscape:persp3d-origin="0.5 : 0.33333333 : 1"
       inkscape:vp_z="1 : 0.5 : 1"
       inkscape:vp_y="0 : 1000 : 0"
       inkscape:vp_x="0 : 0.5 : 1"
       sodipodi:type="inkscape:persp3d" />
  </defs>
  <sodipodi:namedview
     id="base"
     pagecolor="#ffffff"
     bordercolor="#666666"
     borderopacity="1.0"
     inkscape:pageopacity="0.0"
     inkscape:pageshadow="2"
     inkscape:zoom="0.7"
     inkscape:cx="190.73551"
     inkscape:cy="179.51799"
     inkscape:document-units="px"
     inkscape:current-layer="layer1"
     showgrid="false"
     inkscape:window-width="1280"
     inkscape:window-height="748"
     inkscape:window-x="-8"
     inkscape:window-y="-8"
     inkscape:window-maximized="1" />
  <metadata
     id="metadata4137">
    <rdf:RDF>
      <cc:Work
         rdf:about="">
        <dc:format>image/svg+xml</dc:format>
        <dc:type
           rdf:resource="http://purl.org/dc/dcmitype/StillImage" />
        <dc:title></dc:title>
      </cc:Work>
    </rdf:RDF>
  </metadata>
  <g
     inkscape:label="Layer 1"
     inkscape:groupmode="layer"
     id="layer1"
     transform="translate(-68.632913,-189.71446)">
    <path
       style="fill:#cf2127;fill-opacity:1"
       d="m 252.57142,714.59363 c -2.19538,-0.93977 -19.36163,-17.34433 -46.05316,-44.0097 l -42.55316,-42.51146 -4.47509,1.91825 c -37.05603,15.88407 -80.494057,-6.73815 -89.321437,-46.51798 -10.17529,-45.85406 31.851387,-87.88073 77.705437,-77.70544 39.77962,8.82733 62.40205,52.26541 46.51815,89.32104 l -1.91808,4.4747 37.79374,37.80356 37.79373,37.80355 117.50009,0 117.5002,0 38.1563,-38.14672 38.1564,-38.14673 -1.771,-4.13153 c -13.4208,-31.30959 1.1447,-69.00395 32.4679,-84.02408 48.5283,-23.27036 103.5461,20.28248 91.9028,72.75165 -8.8273,39.77983 -52.2654,62.40205 -89.3214,46.51798 l -4.4751,-1.91825 -42.5532,42.51359 c -29.1062,29.0792 -43.728,42.99873 -46.271,44.04884 -3.2791,1.35406 -19.0349,1.53063 -133.5,1.49611 -113.01031,-0.0341 -130.23443,-0.23276 -133.28212,-1.53738 z M 146.29362,596.31385 c 6.18671,-3.15912 10.50408,-7.31837 13.8314,-13.32485 2.57981,-4.65707 2.94425,-6.31422 2.92909,-13.31885 -0.0137,-6.33772 -0.4825,-8.87731 -2.25614,-12.2222 -3.32697,-6.27431 -7.45726,-10.53512 -13.4077,-13.8314 -4.64496,-2.5731 -6.33243,-2.9464 -13.31885,-2.9464 -6.98642,0 -8.67389,0.3733 -13.31885,2.9464 -12.24765,6.78464 -18.6584,20.71948 -15.27876,33.21094 2.43478,8.99913 11.64152,18.58879 20.46232,21.31335 5.03372,1.55481 15.58997,0.60743 20.35749,-1.82699 z m 504.00002,0 c 6.1867,-3.15912 10.5041,-7.31837 13.8314,-13.32485 2.5798,-4.65707 2.9442,-6.31422 2.9291,-13.31885 -0.014,-6.33772 -0.4825,-8.87731 -2.2562,-12.2222 -3.3269,-6.27431 -7.4572,-10.53512 -13.4077,-13.8314 -4.6449,-2.5731 -6.3324,-2.9464 -13.3188,-2.9464 -6.9864,0 -8.6739,0.3733 -13.3189,2.9464 -12.2476,6.78464 -18.6584,20.71948 -15.2787,33.21094 2.4347,8.99913 11.6415,18.58879 20.4623,21.31335 5.0337,1.55481 15.59,0.60743 20.3575,-1.82699 z M 370.8516,633.24867 c -19.1467,-4.70524 -35.18021,-17.75026 -43.72924,-35.57852 -15.62912,-32.59318 -1.8562,-71.05081 31.19906,-87.11598 l 7.25,-3.52357 0,-95.96234 c 0,-104.98746 -0.28421,-99.7826 5.80305,-106.27421 1.48337,-1.58185 4.49697,-3.70947 6.69697,-4.72804 3.8286,-1.77257 9.571,-1.85194 134,-1.85194 124.4289,0 130.1714,0.0794 134,1.85194 2.2,1.01857 5.2136,3.14619 6.6969,4.72804 5.9687,6.36514 5.8051,4.19773 5.7811,76.59398 -0.021,62.38262 -0.1309,66.51745 -1.8739,70.28212 -1.0185,2.2 -3.1462,5.21363 -4.728,6.69695 -5.9974,5.6238 -7.3495,5.80305 -43.7742,5.80305 l -33.4624,0 -3.5235,7.25 c -9.0139,18.54665 -25.5976,31.77779 -45.3134,36.15285 -34.7474,7.71065 -69.9073,-14.95855 -77.7055,-50.10026 -6.4934,-29.26197 8.4791,-59.60135 35.9029,-72.75165 32.5932,-15.62912 71.0508,-1.8562 87.116,31.19906 l 3.5235,7.25 21.4303,0 21.4302,0 0,-42 0,-42 -105.5,0 -105.5,0 0,83.93022 0,83.93023 7.25,3.52357 c 18.5466,9.01385 31.7778,25.59755 36.1528,45.31339 10.3057,46.44139 -32.9361,88.73132 -79.12264,77.38111 z m 27.44204,-36.93482 c 6.1867,-3.15912 10.5041,-7.31837 13.8314,-13.32485 2.5798,-4.65707 2.9442,-6.31422 2.9291,-13.31885 -0.014,-6.33772 -0.4825,-8.87731 -2.2562,-12.2222 -3.3269,-6.27431 -7.4572,-10.53512 -13.4077,-13.8314 -4.6449,-2.5731 -6.3324,-2.9464 -13.3188,-2.9464 -6.9864,0 -8.6739,0.3733 -13.31887,2.9464 -12.24765,6.78464 -18.6584,20.71948 -15.27876,33.21094 2.43477,8.99913 11.64152,18.58879 20.46233,21.31335 5.0337,1.55481 15.59,0.60743 20.3575,-1.82699 z m 126,-126 c 6.1867,-3.15912 10.5041,-7.31837 13.8314,-13.32485 2.5798,-4.65707 2.9442,-6.31422 2.9291,-13.31885 -0.014,-6.33772 -0.4825,-8.87731 -2.2562,-12.2222 -3.3269,-6.27431 -7.4572,-10.53512 -13.4077,-13.8314 -4.6449,-2.5731 -6.3324,-2.9464 -13.3188,-2.9464 -6.9864,0 -8.6739,0.3733 -13.3189,2.9464 -12.2476,6.78464 -18.6584,20.71948 -15.2787,33.21094 2.4347,8.99913 11.6415,18.58879 20.4623,21.31335 5.0337,1.55481 15.59,0.60743 20.3575,-1.82699 z"
       id="path4156" />
  </g>
</svg>
