<?xml version="1.0" encoding="UTF-8" standalone="no"?>
<!-- Created with Inkscape (http://www.inkscape.org/) -->

<svg
   xmlns:dc="http://purl.org/dc/elements/1.1/"
   xmlns:cc="http://creativecommons.org/ns#"
   xmlns:rdf="http://www.w3.org/1999/02/22-rdf-syntax-ns#"
   xmlns:svg="http://www.w3.org/2000/svg"
   xmlns="http://www.w3.org/2000/svg"
   xmlns:sodipodi="http://sodipodi.sourceforge.net/DTD/sodipodi-0.dtd"
   xmlns:inkscape="http://www.inkscape.org/namespaces/inkscape"
   width="208.61176"
   height="208.61"
   id="svg2"
   version="1.1"
   inkscape:version="0.47 r22583"
   sodipodi:docname="PirateShip.svg"
   inkscape:export-filename="D:\workspace\PirateShip\PirateShip.png"
   inkscape:export-xdpi="57.599998"
   inkscape:export-ydpi="57.599998">
  <defs
     id="defs4">
    <inkscape:perspective
       sodipodi:type="inkscape:persp3d"
       inkscape:vp_x="0 : 526.18109 : 1"
       inkscape:vp_y="0 : 1000 : 0"
       inkscape:vp_z="744.09448 : 526.18109 : 1"
       inkscape:persp3d-origin="372.04724 : 350.78739 : 1"
       id="perspective10" />
    <inkscape:perspective
       id="perspective2824"
       inkscape:persp3d-origin="0.5 : 0.33333333 : 1"
       inkscape:vp_z="1 : 0.5 : 1"
       inkscape:vp_y="0 : 1000 : 0"
       inkscape:vp_x="0 : 0.5 : 1"
       sodipodi:type="inkscape:persp3d" />
  </defs>
  <sodipodi:namedview
     id="base"
     pagecolor="#ffffff"
     bordercolor="#666666"
     borderopacity="1.0"
     inkscape:pageopacity="0.0"
     inkscape:pageshadow="2"
     inkscape:zoom="1.979899"
     inkscape:cx="125.02011"
     inkscape:cy="95.575412"
     inkscape:document-units="px"
     inkscape:current-layer="layer1"
     showgrid="false"
     inkscape:window-width="1280"
     inkscape:window-height="748"
     inkscape:window-x="-8"
     inkscape:window-y="-8"
     inkscape:window-maximized="1" />
  <metadata
     id="metadata7">
    <rdf:RDF>
      <cc:Work
         rdf:about="">
        <dc:format>image/svg+xml</dc:format>
        <dc:type
           rdf:resource="http://purl.org/dc/dcmitype/StillImage" />
        <dc:title></dc:title>
      </cc:Work>
    </rdf:RDF>
  </metadata>
  <g
     inkscape:label="Layer 1"
     inkscape:groupmode="layer"
     id="layer1"
     transform="translate(112.36725,-481.04606)">
    <path
       style="fill:#ffffff;fill-opacity:1"
       d="m 33.65625,513.4375 c -18.973615,0.47911 -38.1638155,-0.25857 -57.15625,0.375 -6.021812,0.57011 -9.507214,6.6638 -8.367377,12.37314 -0.697975,22.08565 -0.137649,44.19167 -0.257623,66.28311 -7.222081,-5.92757 -19.662016,-4.4139 -24.875,3.59375 -17.351246,0.6349 -35.01296,-1.23718 -52.1875,1.09375 -6.95404,3.02424 -7.00281,13.59915 -0.73779,17.43317 14.020326,14.26216 27.892256,28.61831 42.51904,42.22308 35.136747,0.8399 70.2995925,0.18229 105.435871,0.31795 7.756605,1.17904 11.702507,-6.40215 16.884593,-10.76341 7.862173,-7.72154 15.392215,-15.83401 23.398286,-23.24204 12.811379,2.71918 24.75163,-12.49371 18.625,-24.21875 -4.777213,-11.60234 -22.805161,-13.77243 -29.75,-3.03125 -1.034674,1.66832 -1.623591,3.27778 -2.625,0.6875 -5.76163,-9.11676 -20.496772,-10.80138 -27.15625,-1.9375 -3.31327,3.63867 -8.983908,0.30054 -13.25,1.4375 -12.22918,-0.008 -24.45833926,0.0126 -36.6875,0.0312 0.129201,-5.90726 -0.339031,-12.67693 0.125,-18.03125 7.4153623,6.15304 20.0835335,4.53479 25.3125,-3.75 10.749789,-0.77889 22.171831,1.79344 32.5,-1.34375 7.484112,-5.24678 3.2898,-15.47422 4.21875,-22.96875 -0.305074,-10.44684 1.271702,-21.43487 -1.09375,-31.5625 -3.235049,-4.81662 -9.563614,-5.39214 -14.875,-5 z M 5.625,533.15625 c -3.4392436,3.88536 -4.0290078,10.36692 -3.6875,14.46875 -5.1093294,-0.94634 -10.5355037,0.43358 -14.5,3.78125 0,-6.08333 0,-12.16667 0,-18.25 6.0625,0 12.125,0 18.1875,0 z m 44.6875,72.3125 c 0,-1.81142 0,-1.10762 0,0 z m 31,0 c 0,-1.81142 0,-1.10762 0,0 z m -30.8125,-0.25 0.28125,-0.875 -0.28125,0.875 z m 31,0 0.28125,-0.875 -0.28125,0.875 z m -31.1875,0.5 c 0.89936,-1.75769 0.605936,-1.1818 0,0 z m 31,0 c 0.89936,-1.75769 0.605936,-1.1818 0,0 z m -30.96875,0.125 c 1.354369,-1.35437 1.036036,-1.03604 0,0 z m 31,0 c 1.354369,-1.35437 1.036036,-1.03604 0,0 z M 50,605.96875 c -2.278593,1.60554 -0.770167,0.19645 0.562289,1.17711 1.49285,0.10134 -0.722985,-0.62203 0.812711,-1.08336 -1.396127,0.54982 1.01142,-1.65897 -1.375,-0.0937 z m 31,0 c -2.278593,1.60554 -0.770167,0.19645 0.562289,1.17711 1.49285,0.10134 -0.722985,-0.62203 0.812711,-1.08336 -1.396127,0.54982 1.01142,-1.65897 -1.375,-0.0937 z m -71,9.25 c 8.464248,1.59401 18.015539,-0.45179 26.25,1.0625 3.013809,4.50075 9.10788,6.86673 13.71875,7.21875 -5.057196,4.40539 -9.303875,10.742 -14.843734,13.96307 C 20.600632,637.2431 5.1998132,637.92435 -8.8125,637.25 c 2.3505008,-2.95705 6.3374774,1.02452 9.375,-0.84375 6.1360297,-1.34397 9.2361468,-8.02968 7.625,-13.84375 0.3509728,-2.02142 -1.2576553,-7.04198 1.8125,-7.34375 z m -72.75,0.4375 c 3.628105,-0.43406 6.573997,0.50036 8.59375,3.5 3.909495,3.7607 10.539639,4.47674 14.9375,4.0625 -1.566687,4.87936 1.535731,11.14212 2.9375,14.1875 -7.964407,0.0151 -16.086908,0.7299 -23.9375,-0.5 -7.041667,-7.04167 -14.083333,-14.08333 -21.125,-21.125 6.204975,0.0449 12.391204,0.15704 18.59375,-0.125 z"
       id="path3611" />
    <path
       sodipodi:type="inkscape:offset"
       inkscape:radius="2.5276926"
       inkscape:original="M 7.5 520.0625 C -23.193946 520.13414 -23.317677 520.13886 -23.96875 520.625 C -24.328206 520.8934 -24.825353 521.39053 -25.09375 521.75 C -25.581604 522.40339 -25.58558 522.41162 -25.65625 563.625 C -25.695128 586.29883 -25.67806 605.44461 -25.59375 606.15625 C -25.466041 607.23415 -25.277231 607.59777 -24.53125 608.34375 L -23.625 609.25 L -14.25 609.25 L -4.875 609.25 L -4.875 616.21875 L -4.875 623.21875 L -8.5 623.1875 L -12.09375 623.1875 L -12.78125 621.75 C -14.53905 618.04241 -18.91546 615.58499 -23.125 615.9375 C -28.35496 616.37545 -32.530356 620.57731 -32.96875 625.8125 C -33.393035 630.87923 -29.962829 635.68827 -24.96875 637.03125 C -20.167431 638.32239 -14.910417 635.89039 -12.6875 631.375 L -11.90625 629.84375 L -6 629.84375 L -0.09375 629.84375 L 0.8125 628.90625 L 1.75 628 L 1.75 618.625 L 1.75 609.25 L 20.78125 609.25 L 39.78125 609.25 L 40.5625 610.78125 C 42.467265 614.65038 46.715625 617.10615 50.96875 616.75 C 55.196692 616.39595 58.970622 613.44622 60.375 609.40625 C 60.964361 607.71083 60.964361 604.35166 60.375 602.65625 C 58.970622 598.61627 55.196692 595.6978 50.96875 595.34375 C 46.76855 594.99203 42.412346 597.45226 40.65625 601.15625 L 39.96875 602.59375 L 10.4375 602.59375 L -19.09375 602.625 L -19.09375 564.625 L -19.09375 526.625 L 8.71875 526.625 L 36.53125 526.625 L 36.53125 543.90625 L 36.53125 561.1875 L 22.625 561.1875 L 8.71875 561.15625 L 8.0625 559.75 C 6.7707272 557.02536 3.7706384 554.71589 0.625 554.0625 C -3.3953712 553.22742 -7.9882045 555.12864 -10.28125 558.5625 C -11.678362 560.6547 -12.09375 562.08948 -12.09375 564.625 C -12.09375 567.16052 -11.678362 568.5953 -10.28125 570.6875 C -8.5567634 573.26993 -5.4720219 575.04531 -2.28125 575.3125 C 1.9718754 575.66866 6.2514853 573.24413 8.15625 569.375 L 8.90625 567.8125 L 25.125 567.8125 L 41.3125 567.8125 L 42.25 566.90625 L 43.15625 565.96875 L 43.15625 544.03125 L 43.15625 522.09375 L 42.28125 521.1875 C 41.487229 520.39348 41.203338 520.26306 39.84375 520.125 C 39.001386 520.0394 24.446045 520.0229 7.5 520.0625 z M 19.15625 533.375 C 17.892212 533.375 16.628956 533.51782 15.78125 533.8125 C 11.741271 535.21688 8.7915484 538.95956 8.4375 543.1875 C 8.0134826 548.25104 11.401279 553.02305 16.4375 554.4375 C 18.163025 554.92211 21.104121 554.76401 22.875 554.09375 C 25.79867 552.98717 28.306541 550.38159 29.34375 547.40625 C 29.98307 545.57229 29.924468 542.11404 29.21875 540.3125 C 28.060503 537.35575 25.492889 534.84203 22.53125 533.8125 C 21.683544 533.51782 20.420288 533.375 19.15625 533.375 z M 20.1875 539.34375 C 22.82739 539.99131 24.799054 542.9394 23.625 545.75 C 23.137558 546.9169 22.191383 547.90037 21.03125 548.4375 C 20.510542 548.67858 19.676959 548.875 19.15625 548.875 C 17.309398 548.875 15.412236 547.55977 14.65625 545.75 C 13.67072 543.39071 14.907222 540.6064 17.40625 539.5625 C 18.343116 539.17115 19.307537 539.1279 20.1875 539.34375 z M -0.40625 559.90625 C 2.2336405 560.55381 4.2053037 563.53315 3.03125 566.34375 C 2.543808 567.51065 1.5976331 568.49412 0.4375 569.03125 C -0.08320817 569.27233 -0.91679178 569.46875 -1.4375 569.46875 C -3.2843525 569.46875 -5.1815145 568.15352 -5.9375 566.34375 C -6.9230301 563.98446 -5.6865277 561.1689 -3.1875 560.125 C -2.2506342 559.73365 -1.2862135 559.6904 -0.40625 559.90625 z M -42.03125 595.34375 C -46.23145 594.99203 -50.618905 597.45225 -52.375 601.15625 L -53.0625 602.59375 L -78.84375 602.59375 C -93.37791 602.60363 -105.04087 602.72276 -105.5625 602.84375 C -106.70875 603.10962 -107.83822 604.1895 -108.0625 605.25 C -108.46988 607.17626 -109.34108 606.19427 -86.375 629.15625 L -64.875 650.65625 L -11.75 650.65625 L 41.375 650.65625 L 58.84375 633.1875 L 76.3125 615.6875 L 77.5625 616.1875 C 79.358056 616.90678 82.993717 616.86602 84.875 616.125 C 87.837146 614.95824 90.346093 612.36611 91.375 609.40625 C 91.964361 607.71084 91.964361 604.35167 91.375 602.65625 C 90.346093 599.6964 87.837146 597.13552 84.875 595.96875 C 82.942657 595.20762 79.369843 595.20762 77.4375 595.96875 C 74.476095 597.13522 71.970266 599.69366 70.9375 602.65625 C 70.307548 604.46334 70.348912 607.97097 71.03125 609.6875 L 71.5625 610.96875 L 55.15625 627.5 L 38.78125 644 L -11.75 644.03125 L -62.28125 644.03125 L -79.6875 626.625 L -97.0625 609.25 L -75.15625 609.25 L -53.21875 609.25 L -52.46875 610.78125 C -50.563986 614.65038 -46.284375 617.10616 -42.03125 616.75 C -37.803308 616.39595 -34.060629 613.44623 -32.65625 609.40625 C -32.066889 607.71084 -32.066889 604.35167 -32.65625 602.65625 C -34.060629 598.61628 -37.803308 595.6978 -42.03125 595.34375 z M -41.8125 601.34375 C -39.17261 601.99131 -37.200946 604.97065 -38.375 607.78125 C -38.862442 608.94815 -39.808616 609.90037 -40.96875 610.4375 C -41.489458 610.67858 -42.354292 610.875 -42.875 610.875 C -44.721852 610.875 -46.587764 609.59102 -47.34375 607.78125 C -48.32928 605.42196 -47.092778 602.6064 -44.59375 601.5625 C -43.656884 601.17115 -42.692463 601.1279 -41.8125 601.34375 z M 51.1875 601.34375 C 53.82739 601.99131 55.799054 604.97065 54.625 607.78125 C 54.137558 608.94815 53.191383 609.90037 52.03125 610.4375 C 51.510542 610.67858 50.676959 610.875 50.15625 610.875 C 48.309398 610.875 46.412236 609.59102 45.65625 607.78125 C 44.67072 605.42196 45.938472 602.6064 48.4375 601.5625 C 49.374366 601.17115 50.307537 601.1279 51.1875 601.34375 z M 82.1875 601.34375 C 84.827391 601.99131 86.799054 604.97065 85.625 607.78125 C 85.137558 608.94815 84.191383 609.90037 83.03125 610.4375 C 82.510542 610.67858 81.676958 610.875 81.15625 610.875 C 79.309397 610.875 77.412235 609.59102 76.65625 607.78125 C 75.670719 605.42196 76.938472 602.6064 79.4375 601.5625 C 80.374366 601.17115 81.307536 601.1279 82.1875 601.34375 z M -21.21875 621.9375 C -18.578859 622.58506 -16.607196 625.53315 -17.78125 628.34375 C -18.268692 629.51065 -19.214867 630.49412 -20.375 631.03125 C -20.895708 631.27233 -21.760542 631.46875 -22.28125 631.46875 C -24.128103 631.46875 -25.994015 630.15352 -26.75 628.34375 C -27.73553 625.98446 -26.499027 623.20015 -24 622.15625 C -23.063134 621.7649 -22.098714 621.72165 -21.21875 621.9375 z "
       style="fill:#408739;fill-opacity:1"
       id="path3609"
       d="m 7.5,517.53125 c -15.3470946,0.0358 -23.031334,0.0532 -27.03125,0.125 -1.999958,0.0359 -3.077512,0.0918 -3.875,0.1875 -0.398744,0.0479 -0.743591,0.0963 -1.15625,0.25 -0.412659,0.15369 -0.810274,0.42834 -0.90625,0.5 -0.663138,0.49515 -1.16102,0.99298 -1.65625,1.65625 -0.06125,0.082 -0.385206,0.55426 -0.53125,1 -0.146044,0.44574 -0.206368,0.82265 -0.25,1.28125 -0.08726,0.91721 -0.120583,2.26913 -0.15625,4.90625 -0.07134,5.27425 -0.08967,15.58073 -0.125,36.1875 -0.01944,11.33877 -0.01,21.78623 0,29.5 0.005,3.85688 -0.01289,7.02503 0,9.28125 0.0064,1.12811 0.02263,2.03974 0.03125,2.6875 0.0043,0.32388 0.02603,0.57804 0.03125,0.78125 0.0052,0.20321 -0.01267,0.223 0.03125,0.59375 0.154143,1.30101 0.895655,2.77066 1.78125,3.65625 l 0.90625,0.90625 a 2.5279453,2.5279453 0 0 0 1.78125,0.75 l 9.375,0 6.84375,0 0,4.4375 0,4.4375 -1.0625,0 a 2.5279453,2.5279453 0 0 0 -0.03125,0 l -2,0 c -2.268325,-4.7844 -7.515556,-7.69619 -12.84375,-7.25 -6.458229,0.5408 -11.615869,5.73441 -12.15625,12.1875 -0.529921,6.32821 3.699881,12.21442 9.875,13.875 6.002493,1.61415 12.415117,-1.35384 15.1875,-6.9375 l 0.03125,-0.0312 0.0625,-0.125 4.34375,0 5.90625,0 a 2.5279453,2.5279453 0 0 0 1.8125,-0.78125 l 0.84375,-0.875 0.03125,-0.0312 L 2.625,630.65625 3.5,629.8125 A 2.5279453,2.5279453 0 0 0 4.28125,628 l 0,-9.375 0,-6.84375 16.5,0 17.4375,0 0.0625,0.125 0.03125,0.0312 c 2.384039,4.80184 7.534217,7.79098 12.875,7.34375 5.266708,-0.44104 9.82227,-4.02514 11.5625,-9.03125 0.929362,-2.67351 0.929368,-5.764 0,-8.4375 -1.741556,-5.00994 -6.308121,-8.56 -11.5625,-9 -5.321783,-0.44564 -10.54881,2.47538 -12.8125,7.25 l -27.9375,0 -27,0.0312 0,-35.46875 0,-35.46875 25.28125,0 25.28125,0 0,14.75 0,14.75 -11.375,0 -12.3125,-0.0312 c -1.7107901,-3.57405 -5.2084905,-6.20476 -9.1875,-7.03125 -5.1436508,-1.0684 -10.5805929,1.19066 -13.5,5.5625 -1.564998,2.34361 -2.25,4.65716 -2.25,7.46875 0,2.81159 0.685002,5.12514 2.25,7.46875 2.200461,3.29521 5.8913791,5.41642 9.875,5.75 5.3442424,0.44753 10.5549019,-2.504 12.9375,-7.34375 a 2.5279453,2.5279453 0 0 0 0,-0.0312 l 0.0625,-0.125 14.625,0 16.1875,0 a 2.5279453,2.5279453 0 0 0 1.75,-0.71875 L 44,568.71875 a 2.5279453,2.5279453 0 0 0 0.0625,-0.0625 l 0.90625,-0.9375 a 2.5279453,2.5279453 0 0 0 0.71875,-1.75 l 0,-21.9375 0,-21.9375 a 2.5279453,2.5279453 0 0 0 -0.71875,-1.75 l -0.875,-0.90625 a 2.5279453,2.5279453 0 0 0 -0.03125,-0.0312 c -0.909176,-0.90917 -2.485167,-1.6306 -3.96875,-1.78125 -0.465439,-0.0473 -0.630479,-0.0537 -1.15625,-0.0625 -0.525771,-0.009 -1.215433,-0.0247 -2.09375,-0.0312 -1.756635,-0.013 -4.19107,0.005 -7.125,0 -5.86786,-0.01 -13.743216,-0.0198 -22.21875,0 z m 11.65625,13.3125 c -1.454436,0 -2.874653,0.12651 -4.21875,0.59375 -4.9951371,1.73641 -8.5901289,6.26351 -9.03125,11.53125 -0.5284647,6.31083 3.6667746,12.17141 9.84375,13.90625 2.583144,0.72547 5.516894,0.54541 8.03125,-0.40625 3.704666,-1.40218 6.634393,-4.48066 7.9375,-8.21875 0.980245,-2.81194 0.932835,-6.09481 -0.15625,-8.875 -1.443522,-3.68499 -4.448521,-6.63775 -8.1875,-7.9375 -1.344097,-0.46724 -2.764314,-0.59375 -4.21875,-0.59375 z m 0.4375,10.96875 c 1.198763,0.29405 2.231287,1.66696 1.6875,2.96875 -0.233721,0.55951 -0.744364,1.11196 -1.3125,1.375 -0.06239,0.0289 -0.927449,0.1875 -0.8125,0.1875 -0.646793,0 -1.812111,-0.73866 -2.15625,-1.5625 -0.423061,-1.01278 0.07738,-2.33296 1.375,-2.875 0.428692,-0.17907 0.829672,-0.18919 1.21875,-0.0937 z M -1,562.375 c 1.18048964,0.28957 2.2287183,1.70436 1.6875,3 -0.23372151,0.55951 -0.74436413,1.11196 -1.3125,1.375 -0.0623897,0.0289 -0.9274509,0.1875 -0.8125,0.1875 -0.6467938,0 -1.8121111,-0.73866 -2.15625,-1.5625 -0.420001,-1.00545 0.093936,-2.37112 1.375,-2.90625 0.4286917,-0.17907 0.8296711,-0.18919 1.21875,-0.0937 z m 82.15625,30.375 c -1.592344,0 -3.195828,0.29975 -4.65625,0.875 -3.681632,1.45016 -6.635289,4.45198 -7.9375,8.1875 -0.487969,1.3998 -0.613331,2.91018 -0.59375,4.4375 0.01831,1.42823 0.187521,2.78397 0.65625,4.09375 l -15.25,15.375 -15.625,15.75 -49.5,0.0312 -49.5,0 -16.65625,-16.65625 -13.0625,-13.0625 15.8125,0 20.34375,0 0.0625,0.125 c 2.380215,4.83491 7.581005,7.82356 12.9375,7.375 5.267737,-0.44112 9.794839,-4.03611 11.53125,-9.03125 0.929368,-2.6735 0.929362,-5.76399 0,-8.4375 -1.73774,-4.99895 -6.275835,-8.55991 -11.53125,-9 -5.322818,-0.44573 -10.575089,2.46488 -12.84375,7.25 l -24.1875,0 c -7.273527,0.005 -13.816493,0.0475 -18.625,0.0937 -2.404254,0.0231 -4.3713,0.0338 -5.78125,0.0625 -0.70498,0.0143 -1.29552,0.0467 -1.71875,0.0625 -0.21162,0.008 -0.37536,0.0213 -0.53125,0.0312 -0.15589,0.01 -0.10973,-0.057 -0.625,0.0625 -2.25777,0.52368 -3.8984,1.94238 -4.40625,4.34375 -0.0551,0.2606 -0.35254,1.64495 0.125,2.8125 0.47754,1.16755 1.20363,1.97227 2.5625,3.46875 2.71774,2.99295 8.205899,8.45795 19.6875,19.9375 l 21.5,21.5 a 2.5279453,2.5279453 0 0 0 1.78125,0.75 l 53.125,0 53.125,0 a 2.5279453,2.5279453 0 0 0 1.78125,-0.75 L 60.625,634.96875 76.9375,618.625 c 1.366947,0.48541 2.800052,0.60772 4.28125,0.59375 1.593133,-0.015 3.151217,-0.1818 4.59375,-0.75 3.697068,-1.45624 6.640428,-4.48746 7.9375,-8.21875 0.929368,-2.6735 0.929362,-5.76399 0,-8.4375 -1.298885,-3.73649 -4.254757,-6.73689 -7.9375,-8.1875 -1.460422,-0.57525 -3.063906,-0.875 -4.65625,-0.875 z m -123.5625,11.0625 c 1.180489,0.28957 2.228718,1.70436 1.6875,3 -0.227535,0.5447 -0.710444,1.065 -1.3125,1.34375 -0.0274,0.0127 -0.958701,0.1875 -0.84375,0.1875 -0.675307,0 -1.7753,-0.6941 -2.125,-1.53125 -0.420001,-1.00545 0.09394,-2.37112 1.375,-2.90625 0.428692,-0.17907 0.829672,-0.18919 1.21875,-0.0937 z m 93,0 c 1.180489,0.28957 2.228718,1.70436 1.6875,3 -0.227535,0.5447 -0.710444,1.065 -1.3125,1.34375 -0.06239,0.0289 -0.927449,0.1875 -0.8125,0.1875 -0.675307,0 -1.8161,-0.71696 -2.15625,-1.53125 -0.412676,-0.98792 0.11827,-2.36823 1.40625,-2.90625 0.447139,-0.18678 0.784975,-0.19249 1.1875,-0.0937 z m 31,0 c 1.18049,0.28957 2.228718,1.70436 1.6875,3 -0.227535,0.5447 -0.710444,1.065 -1.3125,1.34375 -0.06239,0.0289 -0.927451,0.1875 -0.8125,0.1875 -0.675308,0 -1.816101,-0.71696 -2.15625,-1.53125 -0.412676,-0.98792 0.11827,-2.36823 1.40625,-2.90625 0.447139,-0.18678 0.784972,-0.19249 1.1875,-0.0937 z M -21.8125,624.40625 c 1.198764,0.29405 2.231287,1.66696 1.6875,2.96875 -0.233721,0.55951 -0.744364,1.11196 -1.3125,1.375 -0.0274,0.0127 -0.958701,0.1875 -0.84375,0.1875 -0.646795,0 -1.771312,-0.7158 -2.125,-1.5625 -0.423061,-1.01278 0.07738,-2.33296 1.375,-2.875 0.428692,-0.17907 0.82967,-0.18919 1.21875,-0.0937 z" />
  </g>
</svg>
